<svg xmlns="http://www.w3.org/2000/svg" width="1024" height="1024" viewBox="0 0 1024 1024">
  <rect x="0" y="0" width="1024" height="1024" rx="246" ry="246" fill="#FFFFFF"/>
  <g transform="rotate(-33 512 530)">
    <path fill="#17857B" fill-rule="evenodd" d="M 382.000 296.000 L 642.000 296.000 C 759.000 296.000 876.000 413.000 876.000 530.000 L 876.000 530.000 C 876.000 647.000 759.000 764.000 642.000 764.000 L 382.000 764.000 C 265.000 764.000 148.000 647.000 148.000 530.000 L 148.000 530.000 C 148.000 413.000 265.000 296.000 382.000 296.000 Z M 385.000 413.000 L 639.000 413.000 C 697.500 413.000 756.000 471.500 756.000 530.000 L 756.000 530.000 C 756.000 588.500 697.500 647.000 639.000 647.000 L 385.000 647.000 C 326.500 647.000 268.000 588.500 268.000 530.000 L 268.000 530.000 C 268.000 471.500 326.500 413.000 385.000 413.000 Z"/>
  </g>
</svg>
